<?xml version="1.0" encoding="UTF-8"?>
<svg width="40px" height="83px" viewBox="0 0 40 83" version="1.1" xmlns="http://www.w3.org/2000/svg" xmlns:xlink="http://www.w3.org/1999/xlink">
    <!-- Generator: Sketch 46.1 (44463) - http://www.bohemiancoding.com/sketch -->
    <title>hidinghand-stamp</title>
    <desc>Created with Sketch.</desc>
    <defs></defs>
    <g id="Page-1" stroke="none" stroke-width="1" fill="none" fill-rule="evenodd">
        <g id="stamp" transform="translate(-8.000000, 0.000000)" fill-rule="nonzero" fill="#CC2828">
            <g transform="translate(8.000000, -17.000000)" id="hidinghand-stamp">
                <path d="M20.9671404,85.2294299 C21.1847045,85.2300415 21.4008503,85.2271254 21.6139093,85.2199551 C21.9526694,84.4744942 23.0897332,84.9179962 23.9597521,84.9680082 C25.3119616,85.0472724 26.8000525,84.8425065 27.9559887,84.8849695 C29.061913,84.9236579 33.6063936,85.9021933 33.6648982,84.3820193 C33.7234027,82.852409 30.7151377,83.0958633 29.5422163,83.1270028 C28.658043,83.1496497 27.7634899,82.9750798 27.1312636,82.8750559 C26.3282418,82.7495543 22.3999459,82.7118094 21.2949653,82.6240526 C20.0399488,82.525916 19.9578538,78.9580835 20.5976291,78.0201238 C21.2119266,77.1189654 23.2227838,77.3501526 24.8476998,77.3501526 C26.6519039,77.3501526 28.3768438,77.2859864 29.3506611,77.3501526 C30.1631192,77.4048827 32.8382858,78.2598037 32.9033957,76.848146 C32.9694492,75.4006308 30.2027513,75.9837888 28.7165476,75.8441329 C28.214541,75.7969518 27.4247299,75.5534975 26.8132632,75.5091473 C25.8932323,75.4421502 24.3966488,75.7403345 23.197306,75.6771119 C22.0725093,75.6176637 16.861832,75.6752246 15.5228332,75.6752246 C14.2045941,75.6752246 13.0363908,75.7761921 12.0342649,75.8431893 C10.7915155,75.9243407 10.1904287,75.7818539 8.67214186,75.8431893 C7.96253857,75.8714979 6.10171718,75.9941687 6.07246492,76.8472024 C6.04604352,77.6020995 6.70940936,77.5322716 7.02363528,77.6011559 C9.10432046,78.0531506 11.1736822,77.9569012 13.4931036,77.8578209 C14.1432587,77.8304559 17.285518,77.1246271 17.9328422,77.9351979 C18.3867241,78.503258 18.7915377,82.7155839 17.1713398,82.7910736 C16.4258789,82.8259876 9.99509906,83.2864748 9.11658754,83.3761189 C7.83326244,83.5072822 4.68439784,83.2921366 4.86746039,84.7990999 C4.98446945,85.7681991 6.46218055,85.3067682 7.46808096,85.2180678 C8.29846779,85.1444654 9.29210112,85.3162044 9.81392375,85.3020501 C10.4121797,85.2850649 11.3171126,84.9576283 12.2248764,84.8840259 C13.3496731,84.7906073 14.5556213,84.9604592 15.5860558,84.8840259 C15.9017692,84.8596171 16.5950072,84.9310783 17.4748259,85.0152312 C18.7361687,85.5770629 18.3558115,89.2712025 17.9328422,89.8005736 C17.285518,90.6111444 14.1432587,89.9053156 13.4931036,89.8779506 C11.1736822,89.7788703 9.10432046,89.6826209 7.02363528,90.1346156 C6.70940936,90.2035 6.04604352,90.133672 6.07246492,90.8885691 C6.10171718,91.7416028 7.96253857,91.8642736 8.67214186,91.8925823 C10.1904287,91.9539176 10.7915155,91.8114308 12.0342649,91.8925823 C13.0363908,91.9595794 14.2045941,92.0605469 15.5228332,92.0605469 C16.861832,92.0605469 22.0725093,92.1181078 23.197306,92.0586596 C24.3966488,91.995437 25.8932323,92.2936213 26.8132632,92.2266242 C27.4247299,92.182274 28.214541,91.9388197 28.7165476,91.8916386 C30.2027513,91.7519827 32.9694492,92.3351407 32.9033957,90.8876255 C32.8382858,89.4759679 30.1631192,90.3308888 29.3506611,90.3856189 C28.3768438,90.4497851 26.6519039,90.3856189 24.8476998,90.3856189 C23.2227838,90.3856189 21.2119266,90.6168061 20.5976291,89.7156477 C20.0189444,88.8672517 20.0308526,85.867245 20.9671404,85.2294299 Z M2.82227074,0.0602731374 C4.62827074,-0.299726863 5.21127074,1.06427314 6.58727074,1.21327314 C7.60827074,1.32427314 8.83327074,1.08327314 9.99927074,0.999273137 C11.1362707,0.916273137 11.7942707,0.885273137 12.9992707,0.999273137 C14.3742707,1.12927314 15.9622707,1.41827314 17.3422707,1.30227314 C18.1652707,1.23327314 18.9502707,0.823273137 19.7622707,0.681273137 C20.6332707,0.529273137 21.4932707,0.503273137 22.4502707,0.503273137 C24.2052707,0.503273137 25.7922707,0.839273137 27.6262707,1.12427314 C29.3042707,1.38627314 31.2442707,1.22127314 33.0042707,1.03627314 C35.7242707,0.749273137 38.7492707,-0.468726863 39.5922707,2.54427314 C39.9992707,3.99927314 39.7112707,9.53727314 39.3902707,12.9242731 C39.2852707,14.0402731 39.5392707,15.4152731 39.5252707,16.7392731 C39.5012707,18.8232731 39.7272707,20.9442731 39.7272707,23.2152731 C39.7272707,24.3102731 39.5972707,25.4462731 39.5922707,26.5852731 C39.5722707,31.2982731 38.9312707,35.5542731 39.1212707,39.8052731 C39.1672707,40.8402731 39.3152707,41.9322731 39.3902707,42.9982731 C39.7582707,48.2822731 39.7572707,53.9532731 39.5922707,59.7662731 C39.5262707,62.1132731 39.7402707,64.5352731 39.5252707,66.7752731 C39.4132707,67.9412731 38.7862707,69.1742731 38.7182707,70.5902731 C38.6152707,72.7272731 38.8932707,75.2492731 38.9882707,77.5982731 C39.0842707,79.9922731 39.0292707,82.4362731 39.1222707,84.6072731 C39.2652707,87.9452731 40.0752707,95.6192731 38.8532707,98.2692731 C38.6422707,98.7262731 38.2352707,99.2792731 37.5762707,99.6002731 C36.2872707,100.227273 34.7402707,99.7442731 33.2072707,99.5112731 C30.0142707,99.0282731 26.9022707,100.208273 23.8632707,99.6892731 C22.4192707,99.4422731 20.9022707,99.2732731 19.2922707,99.6002731 C18.0712707,99.8482731 16.2712707,99.7262731 14.7892707,99.8662731 C11.5982707,100.168273 8.64827074,99.8932731 5.37827074,99.6892731 C3.94727074,99.5992731 1.73027074,99.8522731 1.00827074,99.1562731 C0.313270736,98.4852731 -0.0107292636,95.6062731 0.000270736418,93.1242731 C0.00527073642,92.0732731 0.263270736,91.0202731 0.336270736,89.9312731 C0.563270736,86.6162731 0.231270736,82.9602731 0.336270736,79.4622731 C0.405270736,77.1822731 0.129270736,74.8232731 0.336270736,72.7192731 C0.565270736,70.3962731 0.743270736,68.3482731 0.606270736,66.0662731 C0.468270736,63.8002731 0.606270736,61.5192731 0.606270736,58.9682731 C0.606270736,56.5142731 0.423270736,54.1932731 0.539270736,51.9602731 C0.651270736,49.7712731 0.399270736,47.7002731 0.404270736,45.3952731 C0.415270736,41.2362731 1.56727074,38.4222731 1.47927074,35.1042731 C1.43527074,33.4062731 1.03727074,32.2112731 0.942270736,30.7572731 C0.878270736,29.7672731 1.03827074,28.6432731 1.00827074,27.5632731 C0.983270736,26.5462731 0.796270736,25.6052731 0.807270736,24.8132731 C0.821270736,23.8022731 1.15827074,22.7942731 1.21027074,21.7962731 C1.44427074,17.4002731 0.429270736,11.7362731 0.673270736,6.27227314 C0.814270736,3.05327314 0.710270736,0.481273137 2.82227074,0.0602731374 Z"></path>
            </g>
        </g>
    </g>
</svg>